# xmcd
#
# Track frame offsets: 
#        150
#        13608
#        28757
#        42013
#        57013
#        71341
#        82841
#        107913
#        124641
#        136723
#        158033
#        171464
#        183127
#        195727
#
# Disc length: 2804 seconds
#
# Revision: 0
# Processed by: cddbd v1.5.2PL0 Copyright (c) Steve Scherf et al.
# Submitted via: ExactAudioCopyFreeDBPlugin 1.0
#
DISCID=aa0af20e
DTITLE=Johnny Bremner - Why Me Lord
DYEAR=1900
DGENRE=
TTITLE0=I saw the light
TTITLE1=He is my everything
TTITLE2=Calling You
TTITLE3=Why Me Lord
TTITLE4=Roses never fade
TTITLE5=On the Wings of a Dove
TTITLE6=Calvary's the Reason Why
TTITLE7=Shattered Dreams
TTITLE8=When the Roll is called up Yonder
TTITLE9=How Great Thou Art
TTITLE10=The God of the Mountains
TTITLE11=Lilly of the Valley
TTITLE12=What a Day that will Be
TTITLE13=Will the Circle be Unbroken
EXTD=
EXTT0=
EXTT1=
EXTT2=
EXTT3=
EXTT4=
EXTT5=
EXTT6=
EXTT7=
EXTT8=
EXTT9=
EXTT10=
EXTT11=
EXTT12=
EXTT13=
PLAYORDER=
